<svg width="25" height="25" viewBox="0 0 25 25" fill="none" xmlns="http://www.w3.org/2000/svg">
<path d="M20.5064 11.9812H4.50641V8.98125H20.5064M20.5064 15.9812H13.5064V13.9812H20.5064M20.5064 19.9812H13.5064V17.9812H20.5064M11.5064 19.9812H4.50641V13.9812H11.5064M20.8364 5.65125L19.1764 3.98125L17.5064 5.65125L15.8364 3.98125L14.1764 5.65125L12.5064 3.98125L10.8364 5.65125L9.17641 3.98125L7.50641 5.65125L5.83641 3.98125L4.17641 5.65125L2.50641 3.98125V19.9812C2.50641 20.5117 2.71712 21.0204 3.0922 21.3955C3.46727 21.7705 3.97598 21.9812 4.50641 21.9812H20.5064C21.0368 21.9812 21.5455 21.7705 21.9206 21.3955C22.2957 21.0204 22.5064 20.5117 22.5064 19.9812V3.98125L20.8364 5.65125Z" fill="black"/>
</svg>
