<svg width="25" height="25" viewBox="0 0 25 25" fill="none" xmlns="http://www.w3.org/2000/svg">
<path d="M15.5064 3.59491H12.5064V5.59491H15.5064V21.5949H5.50641V5.59491H8.50641V3.59491H5.50641C4.97598 3.59491 4.46727 3.80562 4.0922 4.1807C3.71712 4.55577 3.50641 5.06448 3.50641 5.59491V21.5949C3.50641 22.1253 3.71712 22.6341 4.0922 23.0091C4.46727 23.3842 4.97598 23.5949 5.50641 23.5949H15.5064C16.0368 23.5949 16.5455 23.3842 16.9206 23.0091C17.2957 22.6341 17.5064 22.1253 17.5064 21.5949V5.59491C17.5064 5.06448 17.2957 4.55577 16.9206 4.1807C16.5455 3.80562 16.0368 3.59491 15.5064 3.59491ZM10.5064 7.59491C11.0368 7.59491 11.5455 7.80562 11.9206 8.1807C12.2957 8.55577 12.5064 9.06448 12.5064 9.59491C12.5064 10.1253 12.2957 10.6341 11.9206 11.0091C11.5455 11.3842 11.0368 11.5949 10.5064 11.5949C9.97598 11.5949 9.46727 11.3842 9.0922 11.0091C8.71712 10.6341 8.50641 10.1253 8.50641 9.59491C8.50641 9.06448 8.71712 8.55577 9.0922 8.1807C9.46727 7.80562 9.97598 7.59491 10.5064 7.59491ZM14.5064 15.5949H6.50641V14.5949C6.50641 13.2649 9.17641 12.5949 10.5064 12.5949C11.8364 12.5949 14.5064 13.2649 14.5064 14.5949V15.5949ZM14.5064 18.5949H6.50641V17.5949H14.5064V18.5949ZM10.5064 20.5949H6.50641V19.5949H10.5064V20.5949ZM11.5064 5.59491H9.50641V1.59491H11.5064V5.59491ZM19.5064 13.5949V7.59491H21.5064V13.5949H19.5064ZM19.5064 17.5949V15.5949H21.5064V17.5949H19.5064Z" fill="black"/>
</svg>
