<svg width="25" height="25" viewBox="0 0 25 25" fill="none" xmlns="http://www.w3.org/2000/svg">
<path d="M18.7564 22.8983L16.0064 19.8983L17.1664 18.7183L18.7564 20.3083L22.3464 16.7183L23.5064 18.1283L18.7564 22.8983ZM21.0064 3.89827C21.139 3.89827 21.2662 3.95095 21.36 4.04472C21.4537 4.13848 21.5064 4.26566 21.5064 4.39827V14.2383C20.8764 14.0183 20.2064 13.8983 19.5064 13.8983V6.59827L16.5064 7.75827V14.6983C15.7064 15.1683 15.0064 15.8083 14.5064 16.5783V7.76827L10.5064 6.36827V18.0283L13.5564 19.0983L13.5064 19.8983C13.5064 20.3583 13.5564 20.8183 13.6564 21.2483L9.50641 19.7983L4.16641 21.8683L4.00641 21.8983C3.8738 21.8983 3.74662 21.8456 3.65286 21.7518C3.55909 21.6581 3.50641 21.5309 3.50641 21.3983V6.27827C3.50641 6.04827 3.65641 5.86827 3.86641 5.79827L9.50641 3.89827L15.5064 5.99827L20.8464 3.92827L21.0064 3.89827ZM5.50641 7.35827V19.2083L8.50641 18.0483V6.34827L5.50641 7.35827Z" fill="black"/>
</svg>
