<svg width="25" height="25" viewBox="0 0 25 25" fill="none" xmlns="http://www.w3.org/2000/svg">
<path d="M21.0063 15.4812V16.9812H19.5063V15.4812H21.0063ZM19.0063 10.4812H17.5063V9.98125C17.5063 9.1856 17.8224 8.42254 18.385 7.85993C18.9476 7.29732 19.7107 6.98125 20.5063 6.98125C21.302 6.98125 22.0651 7.29732 22.6277 7.85993C23.1903 8.42254 23.5063 9.1856 23.5063 9.98125C23.5063 10.9512 23.0063 11.8612 22.2163 12.3912L21.9163 12.5812C21.3463 12.9812 21.0063 13.5912 21.0063 14.2812V14.4812H19.5063V14.2812C19.5063 13.0912 20.1063 11.9812 21.0963 11.3312L21.3863 11.1412C21.7763 10.8812 22.0063 10.4512 22.0063 9.98125C22.0063 9.58342 21.8483 9.20189 21.567 8.92059C21.2857 8.63928 20.9042 8.48125 20.5063 8.48125C20.1085 8.48125 19.727 8.63928 19.4457 8.92059C19.1644 9.20189 19.0063 9.58342 19.0063 9.98125V10.4812ZM9.50635 13.9812C12.1763 13.9812 17.5063 15.3212 17.5063 17.9812V20.9812H1.50635V17.9812C1.50635 15.3212 6.83635 13.9812 9.50635 13.9812ZM9.50635 4.98125C10.5672 4.98125 11.5846 5.40267 12.3348 6.15282C13.0849 6.90297 13.5063 7.92038 13.5063 8.98125C13.5063 10.0421 13.0849 11.0595 12.3348 11.8097C11.5846 12.5598 10.5672 12.9812 9.50635 12.9812C8.44548 12.9812 7.42807 12.5598 6.67792 11.8097C5.92777 11.0595 5.50635 10.0421 5.50635 8.98125C5.50635 7.92038 5.92777 6.90297 6.67792 6.15282C7.42807 5.40267 8.44548 4.98125 9.50635 4.98125ZM9.50635 15.8812C6.53635 15.8812 3.40635 17.3412 3.40635 17.9812V19.0812H15.6063V17.9812C15.6063 17.3412 12.4763 15.8812 9.50635 15.8812ZM9.50635 6.88125C8.94939 6.88125 8.41525 7.1025 8.02142 7.49632C7.6276 7.89015 7.40635 8.42429 7.40635 8.98125C7.40635 9.5382 7.6276 10.0723 8.02142 10.4662C8.41525 10.86 8.94939 11.0812 9.50635 11.0812C10.0633 11.0812 10.5974 10.86 10.9913 10.4662C11.3851 10.0723 11.6063 9.5382 11.6063 8.98125C11.6063 8.42429 11.3851 7.89015 10.9913 7.49632C10.5974 7.1025 10.0633 6.88125 9.50635 6.88125Z" fill="black"/>
</svg>
