<svg width="25" height="25" viewBox="0 0 25 25" fill="none" xmlns="http://www.w3.org/2000/svg">
<path d="M18.2563 21.7549L15.5063 18.7549L16.6663 17.5949L18.2563 19.1849L21.8463 15.5949L23.0063 17.0049L18.2563 21.7549ZM13.5063 18.8049C13.0063 19.2949 12.2863 19.5949 11.5063 19.5949C9.85635 19.5949 8.50635 18.2449 8.50635 16.5949V13.5949H14.5063V15.2849C15.0063 14.5149 15.7063 13.8649 16.5063 13.4049V11.5949H6.50635V16.5949C6.50635 18.2349 7.31635 19.6849 8.53635 20.5949H4.50635V4.59491H6.50635V6.59491C6.50635 7.14491 6.95635 7.59491 7.50635 7.59491H15.5063C16.0563 7.59491 16.5063 7.14491 16.5063 6.59491V4.59491H18.5063V2.59491H4.50635C3.40635 2.59491 2.50635 3.49491 2.50635 4.59491V20.5949C2.50635 21.6949 3.40635 22.5949 4.50635 22.5949H15.0463C14.1363 21.5949 13.5663 20.2649 13.5063 18.8049ZM10.5063 9.59491C10.5063 10.1449 10.9563 10.5949 11.5063 10.5949C12.0563 10.5949 12.5063 10.1449 12.5063 9.59491C12.5063 9.04491 12.0563 8.59491 11.5063 8.59491C10.9563 8.59491 10.5063 9.04491 10.5063 9.59491Z" fill="black"/>
</svg>
