<svg width="25" height="25" viewBox="0 0 25 25" fill="none" xmlns="http://www.w3.org/2000/svg">
<path d="M3.50624 17.4581V21.2081H7.25624L18.3162 10.1381L14.5662 6.38814L3.50624 17.4581ZM23.1162 18.5681L18.8662 22.8181L13.6662 17.6181L15.4362 15.8481L16.4362 16.8481L18.9062 14.3681L20.3262 15.7881L18.8662 17.2081L19.9262 18.2081L21.3462 16.8081L23.1162 18.5681ZM7.11624 11.0381L1.89624 5.84814L6.14624 1.59814L7.90624 3.36814L5.43624 5.84814L6.50624 6.90814L8.96624 4.42814L10.3862 5.84814L8.96624 7.25814L9.96624 8.25814L7.11624 11.0381ZM21.2162 7.20814C21.6062 6.81814 21.6062 6.20814 21.2162 5.79814L18.8762 3.49814C18.5062 3.10814 17.8562 3.10814 17.4662 3.49814L15.6262 5.32814L19.3762 9.07814L21.2162 7.20814Z" fill="black"/>
</svg>
