<svg width="25" height="25" viewBox="0 0 25 25" fill="none" xmlns="http://www.w3.org/2000/svg">
<path d="M19.5063 17.9812V12.7812C19.0063 12.8812 18.5063 12.9812 18.0063 12.9812H17.5063V18.9812H7.50635V11.9812C7.50635 9.18125 9.70635 6.98125 12.5063 6.98125C12.6063 5.68125 13.2063 4.58125 14.0063 3.68125C13.7063 3.28125 13.1063 2.98125 12.5063 2.98125C11.4063 2.98125 10.5063 3.88125 10.5063 4.98125V5.28125C7.50635 6.18125 5.50635 8.88125 5.50635 11.9812V17.9812L3.50635 19.9812V20.9812H21.5063V19.9812L19.5063 17.9812ZM10.5063 21.9812C10.5063 23.0812 11.4063 23.9812 12.5063 23.9812C13.6063 23.9812 14.5063 23.0812 14.5063 21.9812H10.5063ZM21.5063 7.48125C21.5063 9.38125 19.9063 10.9812 18.0063 10.9812C16.1063 10.9812 14.5063 9.38125 14.5063 7.48125C14.5063 5.58125 16.1063 3.98125 18.0063 3.98125C19.9063 3.98125 21.5063 5.58125 21.5063 7.48125Z" fill="black"/>
</svg>
