<svg width="25" height="25" viewBox="0 0 25 25" fill="none" xmlns="http://www.w3.org/2000/svg">
<path d="M21.5063 11.7049V5.59491C21.5063 4.49491 20.6163 3.59491 19.5063 3.59491H15.3263C14.9063 2.43491 13.8063 1.59491 12.5063 1.59491C11.2063 1.59491 10.1063 2.43491 9.68635 3.59491H5.50635C4.40635 3.59491 3.50635 4.49491 3.50635 5.59491V19.5949C3.50635 20.7049 4.40635 21.5949 5.50635 21.5949H11.6163C12.8763 22.8349 14.5963 23.5949 16.5063 23.5949C20.3763 23.5949 23.5063 20.4649 23.5063 16.5949C23.5063 14.6849 22.7463 12.9649 21.5063 11.7049ZM12.5063 3.59491C13.0563 3.59491 13.5063 4.04491 13.5063 4.59491C13.5063 5.14491 13.0563 5.59491 12.5063 5.59491C11.9563 5.59491 11.5063 5.14491 11.5063 4.59491C11.5063 4.04491 11.9563 3.59491 12.5063 3.59491ZM5.50635 19.5949V5.59491H7.50635V7.59491H17.5063V5.59491H19.5063V10.2749C18.5963 9.84491 17.5863 9.59491 16.5063 9.59491H7.50635V11.5949H11.6063C11.0063 12.1649 10.5463 12.8449 10.1863 13.5949H7.50635V15.5949H9.58635C9.53635 15.9249 9.50635 16.2549 9.50635 16.5949C9.50635 17.6749 9.75635 18.6849 10.1863 19.5949H5.50635ZM16.5063 21.5949C13.7463 21.5949 11.5063 19.3549 11.5063 16.5949C11.5063 13.8349 13.7463 11.5949 16.5063 11.5949C19.2663 11.5949 21.5063 13.8349 21.5063 16.5949C21.5063 19.3549 19.2663 21.5949 16.5063 21.5949ZM17.0063 16.8449L19.8663 18.5349L19.1163 19.7549L15.5063 17.5949V12.5949H17.0063V16.8449Z" fill="black"/>
</svg>
