<svg width="25" height="25" viewBox="0 0 25 25" fill="none" xmlns="http://www.w3.org/2000/svg">
<path d="M20.2754 13.6413L19.1554 17.6113C18.3754 17.1813 18.0854 16.7513 16.5054 14.9413C14.9054 16.7613 14.0754 17.9813 12.5054 17.9813C10.9754 17.9813 10.1654 16.8313 8.50537 14.9413C6.90537 16.7613 6.63537 17.1513 5.85537 17.5913L4.72537 13.6313L12.5054 11.0913L20.2754 13.6413ZM15.5054 1.98128H9.50537V4.98128H6.50537C5.40537 4.98128 4.50537 5.88128 4.50537 6.98128V11.6013L3.21537 12.0213C2.58537 12.2113 2.40537 12.8613 2.55537 13.3013L4.45537 19.9813H4.50537C6.10537 19.9813 7.52537 19.1013 8.50537 17.9813C9.48537 19.1013 10.9054 19.9813 12.5054 19.9813C14.1054 19.9813 15.5254 19.1013 16.5054 17.9813C17.4854 19.1013 18.9054 19.9813 20.5054 19.9813H20.5554L22.4654 13.3013C22.5754 12.9313 22.5054 12.2413 21.8054 12.0213L20.5054 11.6013V6.98128C20.5054 5.88128 19.6054 4.98128 18.5054 4.98128H15.5054V1.98128ZM6.50537 10.9513V6.98128H18.5054V10.9513L12.5054 8.98128L6.50537 10.9513ZM16.5054 20.6613C15.2854 21.5113 13.8954 21.9413 12.5054 21.9413C11.1154 21.9413 9.72537 21.5113 8.50537 20.6613C7.28537 21.5113 5.89537 21.9813 4.50537 21.9813H2.50537V23.9813H4.50537C5.88537 23.9813 7.24537 23.6313 8.50537 22.9913C9.76537 23.6313 11.1354 23.9613 12.5054 23.9613C13.8754 23.9613 15.2454 23.6413 16.5054 22.9913C17.7654 23.6413 19.1254 23.9813 20.5054 23.9813H22.5054V21.9813H20.5054C19.1154 21.9813 17.7254 21.5113 16.5054 20.6613Z" fill="black"/>
</svg>
