<svg width="25" height="25" viewBox="0 0 25 25" fill="none" xmlns="http://www.w3.org/2000/svg">
<path d="M12.5063 3.59494C12.9206 3.59494 13.2563 3.93073 13.2563 4.34494V6.59494C13.2563 7.00915 12.9206 7.34494 12.5063 7.34494C12.0921 7.34494 11.7563 7.00915 11.7563 6.59494V4.34494C11.7563 3.93073 12.0921 3.59494 12.5063 3.59494Z" fill="#212529"/>
<path d="M6.1047 6.19329C6.39759 5.9004 6.87247 5.9004 7.16536 6.19329L8.53668 7.56461C8.82957 7.8575 8.82957 8.33238 8.53668 8.62527C8.24378 8.91816 7.76891 8.91816 7.47602 8.62527L6.1047 7.25395C5.8118 6.96106 5.8118 6.48618 6.1047 6.19329Z" fill="#212529"/>
<path d="M3.50635 12.5949C3.50635 12.1807 3.84213 11.8449 4.25635 11.8449H6.63503C7.04924 11.8449 7.38503 12.1807 7.38503 12.5949C7.38503 13.0092 7.04924 13.3449 6.63503 13.3449H4.25635C3.84213 13.3449 3.50635 13.0092 3.50635 12.5949Z" fill="#212529"/>
<path d="M17.7563 12.5949C17.7563 12.1807 18.0921 11.8449 18.5063 11.8449L20.7563 11.8449C21.1706 11.8449 21.5063 12.1807 21.5063 12.5949C21.5063 13.0092 21.1706 13.3449 20.7563 13.3449H18.5063C18.0921 13.3449 17.7563 13.0092 17.7563 12.5949Z" fill="#212529"/>
<path d="M18.8879 6.22627C18.6726 6.01104 18.328 5.99767 18.0968 6.19558L11.8272 11.5608C11.2231 12.0778 11.1873 12.9999 11.7496 13.5622C12.3249 14.1375 13.2725 14.0847 13.7804 13.4491L18.9311 7.00223C19.1164 6.77031 19.0978 6.43618 18.8879 6.22627Z" fill="#212529"/>
<path fill-rule="evenodd" clip-rule="evenodd" d="M10.502 24.4283C4.8287 23.4743 0.506348 18.5394 0.506348 12.5949C0.506348 5.96752 5.87893 0.59494 12.5063 0.59494C19.1338 0.59494 24.5063 5.96752 24.5063 12.5949C24.5063 14.8695 23.8735 16.9963 22.7743 18.8088C20.6707 22.2773 16.8592 24.5949 12.5064 24.5949C11.8235 24.5949 11.1538 24.5379 10.502 24.4283ZM3.50489 18.0039C6.15279 16.4718 9.2272 15.5949 12.5064 15.5949C15.7856 15.5949 18.86 16.4718 21.5078 18.0038C22.4591 16.4241 23.0063 14.5734 23.0063 12.5949C23.0063 6.79595 18.3053 2.09494 12.5063 2.09494C6.70736 2.09494 2.00635 6.79595 2.00635 12.5949C2.00635 14.5734 2.55356 16.4241 3.50489 18.0039Z" fill="#212529"/>
</svg>
