<svg width="25" height="25" viewBox="0 0 25 25" fill="none" xmlns="http://www.w3.org/2000/svg">
<path d="M12.5064 0.132301L22.4211 4.70833H23.7564C24.1706 4.70833 24.5064 5.04412 24.5064 5.45833V8.45833C24.5064 8.87254 24.1706 9.20833 23.7564 9.20833H23.0064V19.7083C23.3505 19.7083 23.6505 19.9426 23.734 20.2764L24.484 23.2764C24.54 23.5005 24.4896 23.7379 24.3475 23.9199C24.2054 24.1019 23.9873 24.2083 23.7564 24.2083H1.25635C1.0254 24.2083 0.807331 24.1019 0.6652 23.9199C0.52307 23.7379 0.472734 23.5005 0.528748 23.2764L1.27875 20.2764C1.36222 19.9426 1.6622 19.7083 2.00635 19.7083V9.20833H1.25635C0.842141 9.20833 0.506354 8.87254 0.506354 8.45833V5.45833C0.506354 5.04412 0.842141 4.70833 1.25635 4.70833H2.59163L12.5064 0.132301ZM6.17108 4.70833H18.8416L12.5064 1.78436L6.17108 4.70833ZM3.50635 9.20833V19.7083H5.00635V9.20833H3.50635ZM6.50635 9.20833V19.7083H10.2564V9.20833H6.50635ZM11.7564 9.20833V19.7083H13.2564V9.20833H11.7564ZM14.7564 9.20833V19.7083H18.5064V9.20833H14.7564ZM20.0064 9.20833V19.7083H21.5064V9.20833H20.0064ZM23.0064 7.70833V6.20833H2.00635V7.70833H23.0064ZM22.4208 21.2083H2.59194L2.21694 22.7083H22.7958L22.4208 21.2083Z" fill="#212529"/>
</svg>
