<svg width="25" height="25" viewBox="0 0 25 25" fill="none" xmlns="http://www.w3.org/2000/svg">
<path d="M2.75635 21.4058C2.34213 21.4058 2.00635 21.07 2.00635 20.6558L2.00635 4.15576C2.00635 3.74155 2.34213 3.40576 2.75635 3.40576C3.17056 3.40576 3.50635 3.74155 3.50635 4.15576V5.65576H5.00635C7.6915 5.65576 10.009 7.22368 11.0959 9.49059C11.3044 9.92544 11.6616 10.1558 11.9801 10.1558H13.0326C13.3511 10.1558 13.7083 9.92544 13.9168 9.49059C15.0037 7.22368 17.3212 5.65576 20.0064 5.65576H21.5064L21.5063 4.15577C21.5063 3.74156 21.8421 3.40577 22.2563 3.40576C22.6706 3.40576 23.0063 3.74154 23.0063 4.15575L23.0064 20.6558C23.0064 21.07 22.6706 21.4058 22.2564 21.4058C21.8422 21.4058 21.5064 21.07 21.5064 20.6558V19.1558H20.0064C17.3212 19.1558 15.0037 17.5878 13.9168 15.3209C13.7083 14.8861 13.3511 14.6558 13.0326 14.6558H11.9801C11.6616 14.6558 11.3044 14.8861 11.0959 15.3209C10.009 17.5878 7.6915 19.1558 5.00635 19.1558H3.50635V20.6558C3.50635 21.07 3.17056 21.4058 2.75635 21.4058ZM3.50635 17.6558H5.00635C7.09281 17.6558 8.89647 16.4387 9.74337 14.6724C10.1267 13.873 10.9298 13.1558 11.9801 13.1558H13.0326C14.0829 13.1558 14.886 13.873 15.2694 14.6724C16.1163 16.4387 17.9199 17.6558 20.0064 17.6558H21.5064V7.15576H20.0064C17.9199 7.15576 16.1163 8.37284 15.2694 10.1391C14.886 10.9386 14.0829 11.6558 13.0326 11.6558H11.9801C10.9298 11.6558 10.1267 10.9386 9.74337 10.1391C8.89647 8.37284 7.09281 7.15576 5.00635 7.15576H3.50635L3.50635 17.6558Z" fill="#212529"/>
</svg>
