<svg width="25" height="25" viewBox="0 0 25 25" fill="none" xmlns="http://www.w3.org/2000/svg">
<path d="M8.01074 22.3983C4.72569 20.8383 2.37491 17.6583 2.01325 13.8983H0.506348C1.00865 20.0583 6.19241 24.8983 12.5114 24.8983L13.1744 24.8683L9.34687 21.0583L8.01074 22.3983ZM8.90484 15.8583C8.71397 15.8583 8.54318 15.8283 8.38245 15.7783C8.22171 15.7183 8.09111 15.6483 7.98061 15.5383C7.8701 15.4383 7.77968 15.3183 7.71941 15.1683C7.65913 15.0283 7.62899 14.8683 7.62899 14.6983H6.32301C6.32301 15.0583 6.39333 15.3983 6.53397 15.6483C6.67462 15.8983 6.86549 16.1483 7.09655 16.3383C7.33766 16.5183 7.6089 16.6583 7.92033 16.7483C8.22171 16.8483 8.54318 16.8983 8.88475 16.8983C9.25645 16.8983 9.60806 16.8483 9.91949 16.7483C10.241 16.6483 10.5223 16.4983 10.7533 16.3083C10.9844 16.1183 11.1752 15.8983 11.3058 15.5883C11.4364 15.2983 11.5068 14.9783 11.5068 14.6183C11.5068 14.4283 11.4867 14.2383 11.4364 14.0583C11.3862 13.8983 11.3159 13.7083 11.2054 13.5483C11.1049 13.3983 10.9643 13.2483 10.8035 13.1183C10.6328 12.9883 10.4318 12.8983 10.1907 12.8083C10.3917 12.7183 10.5524 12.6083 10.7131 12.4783C10.8638 12.3483 10.9844 12.2083 11.0848 12.0583C11.1853 11.8983 11.2556 11.7583 11.3058 11.5983C11.3561 11.4383 11.3762 11.2783 11.3762 11.1183C11.3762 10.7583 11.3159 10.4383 11.1953 10.1583C11.0547 9.8983 10.904 9.6483 10.683 9.4683C10.4821 9.2783 10.2108 9.1383 9.90944 9.0383C9.59802 8.9483 9.25645 8.8983 8.88475 8.8983C8.54318 8.8983 8.19157 8.9483 7.88014 9.0583C7.57876 9.1683 7.30752 9.3183 7.08651 9.5083C6.87554 9.6983 6.70476 9.8983 6.57416 10.1783C6.45361 10.4383 6.39333 10.7183 6.39333 11.0283H7.69932C7.69932 10.8583 7.72945 10.7083 7.78973 10.5783C7.85001 10.4483 7.93037 10.3283 8.04088 10.2383C8.15139 10.1483 8.27194 10.0683 8.42263 10.0183C8.57332 9.9683 8.72401 9.9383 8.90484 9.9383C9.30668 9.9383 9.60806 10.0383 9.79894 10.2483C9.98981 10.4483 10.0903 10.7383 10.0903 11.1083C10.0903 11.2883 10.0501 11.4483 10.0099 11.5983C9.95968 11.7483 9.86926 11.8683 9.75875 11.9683C9.64825 12.0683 9.5076 12.1483 9.34687 12.2083C9.18613 12.2683 8.98521 12.2983 8.7642 12.2983H7.99065V13.3283H8.7642C8.98521 13.3283 9.18613 13.3483 9.36696 13.3983C9.54779 13.4483 9.69848 13.5283 9.81903 13.6283C9.93958 13.7383 10.0501 13.8683 10.1104 14.0283C10.1807 14.1883 10.2108 14.3983 10.2108 14.5983C10.2108 15.0083 10.0903 15.3183 9.85922 15.5283C9.62816 15.7583 9.30668 15.8583 8.90484 15.8583ZM17.4942 9.9383C17.1727 9.6083 16.791 9.3483 16.349 9.1683C15.917 8.9883 15.4247 8.8983 14.8822 8.8983H12.5114V16.8983H14.822C15.3745 16.8983 15.8868 16.8083 16.3389 16.6283C16.791 16.4483 17.1828 16.1983 17.5043 15.8683C17.8257 15.5383 18.0869 15.1383 18.2477 14.6783C18.4184 14.2083 18.5089 13.6883 18.5089 13.1083V12.7083C18.5089 12.1283 18.4184 11.6083 18.2477 11.1383C18.0869 10.6683 17.8157 10.2683 17.4942 9.9383ZM17.0823 13.0983C17.0823 13.5183 17.0522 13.8983 16.9618 14.2283C16.8613 14.5583 16.7207 14.8483 16.5298 15.0783C16.3389 15.3083 16.0777 15.4883 15.8165 15.6083C15.5252 15.7283 15.1937 15.7883 14.822 15.7883H13.9078V10.0183H14.8822C15.6056 10.0183 16.1581 10.2483 16.5298 10.7083C16.9115 11.1683 17.0823 11.8283 17.0823 12.6983M12.5114 0.8983L11.8483 0.9283L15.6759 4.7383L17.012 3.3983C20.2971 4.9583 22.6478 8.1283 22.9994 11.8983H24.5063C24.004 5.7383 18.8303 0.8983 12.5114 0.8983Z" fill="black"/>
</svg>
