<svg width="25" height="25" viewBox="0 0 25 25" fill="none" xmlns="http://www.w3.org/2000/svg">
<path d="M15.0059 11.9504C16.9792 11.7045 18.5062 10.0212 18.5062 7.98127C18.5062 5.94135 16.9792 4.25809 15.0059 4.01218C15.9396 5.06992 16.5062 6.45943 16.5062 7.98127C16.5062 9.50311 15.9396 10.8926 15.0059 11.9504Z" fill="#535763"/>
<path d="M20.5063 20.9813C20.5063 21.5336 20.954 21.9813 21.5063 21.9813C22.0586 21.9813 22.5063 21.5336 22.5063 20.9813V18.9813C22.5063 16.3212 20.429 14.1463 17.8081 13.9902C18.8602 14.922 19.6651 16.1266 20.1119 17.4933C20.3629 17.9318 20.5063 18.4398 20.5063 18.9813V20.9813Z" fill="#535763"/>
<path fill-rule="evenodd" clip-rule="evenodd" d="M7.50635 15.9813C5.84949 15.9813 4.50635 17.3244 4.50635 18.9813V20.9813C4.50635 21.5335 4.05863 21.9813 3.50635 21.9813C2.95406 21.9813 2.50635 21.5335 2.50635 20.9813V18.9813C2.50635 16.2198 4.74492 13.9813 7.50635 13.9813H13.5063C16.2678 13.9813 18.5063 16.2198 18.5063 18.9813V20.9813C18.5063 21.5335 18.0586 21.9813 17.5063 21.9813C16.9541 21.9813 16.5063 21.5335 16.5063 20.9813V18.9813C16.5063 17.3244 15.1632 15.9813 13.5063 15.9813H7.50635Z" fill="#535763"/>
<path fill-rule="evenodd" clip-rule="evenodd" d="M10.5063 5.98128C9.40178 5.98128 8.50635 6.87671 8.50635 7.98128C8.50635 9.08585 9.40178 9.98128 10.5063 9.98128C11.6109 9.98128 12.5063 9.08585 12.5063 7.98128C12.5063 6.87671 11.6109 5.98128 10.5063 5.98128ZM6.50635 7.98128C6.50635 5.77214 8.29721 3.98128 10.5063 3.98128C12.7155 3.98128 14.5063 5.77214 14.5063 7.98128C14.5063 10.1904 12.7155 11.9813 10.5063 11.9813C8.29721 11.9813 6.50635 10.1904 6.50635 7.98128Z" fill="#535763"/>
</svg>
