<svg width="25" height="25" viewBox="0 0 25 25" fill="none" xmlns="http://www.w3.org/2000/svg">
<path d="M5.75635 0.208328C6.17056 0.208328 6.50635 0.544115 6.50635 0.958328V1.70833H18.5063V0.958328C18.5063 0.544115 18.8421 0.208328 19.2563 0.208328C19.6706 0.208328 20.0063 0.544115 20.0063 0.958328V1.70833H21.5063C23.1632 1.70833 24.5063 3.05147 24.5063 4.70833V21.2083C24.5063 22.8652 23.1632 24.2083 21.5063 24.2083H3.50635C1.84949 24.2083 0.506348 22.8652 0.506348 21.2083V4.70833C0.506348 3.05147 1.84949 1.70833 3.50635 1.70833H5.00635V0.958328C5.00635 0.544115 5.34213 0.208328 5.75635 0.208328ZM3.50635 3.20833C2.67792 3.20833 2.00635 3.8799 2.00635 4.70833V6.20833H23.0063V4.70833C23.0063 3.8799 22.3348 3.20833 21.5063 3.20833H3.50635ZM23.0063 7.70833H2.00635V21.2083C2.00635 22.0368 2.67792 22.7083 3.50635 22.7083H21.5063C22.3348 22.7083 23.0063 22.0368 23.0063 21.2083V7.70833Z" fill="#212529"/>
<path d="M17.0063 11.4583C17.0063 11.0441 17.3421 10.7083 17.7563 10.7083H19.2563C19.6706 10.7083 20.0063 11.0441 20.0063 11.4583V12.9583C20.0063 13.3725 19.6706 13.7083 19.2563 13.7083H17.7563C17.3421 13.7083 17.0063 13.3725 17.0063 12.9583V11.4583Z" fill="#212529"/>
<path d="M12.5063 11.4583C12.5063 11.0441 12.8421 10.7083 13.2563 10.7083H14.7563C15.1706 10.7083 15.5063 11.0441 15.5063 11.4583V12.9583C15.5063 13.3725 15.1706 13.7083 14.7563 13.7083H13.2563C12.8421 13.7083 12.5063 13.3725 12.5063 12.9583V11.4583Z" fill="#212529"/>
<path d="M9.50635 15.9583C9.50635 15.5441 9.84213 15.2083 10.2563 15.2083H11.7563C12.1706 15.2083 12.5063 15.5441 12.5063 15.9583V17.4583C12.5063 17.8725 12.1706 18.2083 11.7563 18.2083H10.2563C9.84213 18.2083 9.50635 17.8725 9.50635 17.4583V15.9583Z" fill="#212529"/>
<path d="M5.00635 15.9583C5.00635 15.5441 5.34213 15.2083 5.75635 15.2083H7.25635C7.67056 15.2083 8.00635 15.5441 8.00635 15.9583V17.4583C8.00635 17.8725 7.67056 18.2083 7.25635 18.2083H5.75635C5.34213 18.2083 5.00635 17.8725 5.00635 17.4583V15.9583Z" fill="#212529"/>
</svg>
