<svg width="25" height="25" viewBox="0 0 25 25" fill="none" xmlns="http://www.w3.org/2000/svg">
<path d="M20.5063 13.4958V7.40576C20.5063 5.19576 16.9263 3.40576 12.5063 3.40576C8.08635 3.40576 4.50635 5.19576 4.50635 7.40576V17.4058C4.50635 19.6158 8.09635 21.4058 12.5063 21.4058C12.9663 21.4058 13.4063 21.4058 13.8363 21.3458C13.6263 20.7358 13.5063 20.0858 13.5063 19.4058V19.3558C13.1863 19.4058 12.8563 19.4058 12.5063 19.4058C8.63635 19.4058 6.50635 17.9058 6.50635 17.4058V15.1758C8.11635 15.9558 10.2263 16.4058 12.5063 16.4058C13.1563 16.4058 13.7763 16.3658 14.3863 16.2958C15.4363 14.5658 17.3363 13.4058 19.5063 13.4058C19.8463 13.4058 20.1763 13.4458 20.5063 13.4958ZM18.5063 12.8558C17.2063 13.8058 14.9263 14.4058 12.5063 14.4058C10.0863 14.4058 7.80635 13.8058 6.50635 12.8558V10.0458C7.97635 10.8758 10.1163 11.4058 12.5063 11.4058C14.8963 11.4058 17.0363 10.8758 18.5063 10.0458V12.8558ZM12.5063 9.40576C8.63635 9.40576 6.50635 7.90576 6.50635 7.40576C6.50635 6.90576 8.63635 5.40576 12.5063 5.40576C16.3763 5.40576 18.5063 6.90576 18.5063 7.40576C18.5063 7.90576 16.3763 9.40576 12.5063 9.40576ZM23.0063 17.6558L18.2563 22.4058L15.5063 19.4058L16.6663 18.2458L18.2563 19.8358L21.8463 16.2458L23.0063 17.6558Z" fill="black"/>
</svg>
