<svg width="25" height="25" viewBox="0 0 25 25" fill="none" xmlns="http://www.w3.org/2000/svg">
<path fill-rule="evenodd" clip-rule="evenodd" d="M10.5607 3.07856C11.682 2.12302 13.3311 2.12301 14.4524 3.07856L15.7239 4.16209C15.884 4.29858 16.0832 4.38107 16.2929 4.39781L17.9582 4.5307C19.4267 4.64789 20.5928 5.81402 20.71 7.28255L20.8429 8.94779C20.8597 9.15755 20.9421 9.35669 21.0786 9.51686L22.1622 10.7883C23.1177 11.9096 23.1177 13.5588 22.1622 14.68L21.0786 15.9515C20.9421 16.1117 20.8597 16.3108 20.8429 16.5206L20.71 18.1858C20.5928 19.6543 19.4267 20.8205 17.9582 20.9377L16.2929 21.0705C16.0832 21.0873 15.884 21.1698 15.7239 21.3063L14.4524 22.3898C13.3311 23.3453 11.682 23.3453 10.5607 22.3898L9.28923 21.3063C9.12907 21.1698 8.92993 21.0873 8.72016 21.0705L7.05492 20.9377C5.58639 20.8205 4.42026 19.6543 4.30307 18.1858L4.17019 16.5206C4.15345 16.3108 4.07096 16.1117 3.93447 15.9515L2.85093 14.68C1.89539 13.5588 1.89539 11.9096 2.85093 10.7883L3.93447 9.51686C4.07096 9.35669 4.15345 9.15755 4.17019 8.94779L4.30307 7.28255C4.42026 5.81402 5.5864 4.64789 7.05492 4.5307L8.72016 4.39781C8.92993 4.38107 9.12907 4.29858 9.28923 4.16209L10.5607 3.07856ZM13.1552 4.60079C12.7814 4.28227 12.2317 4.28227 11.8579 4.60079L10.5865 5.68432C10.106 6.09379 9.50856 6.34125 8.87926 6.39147L7.21402 6.52436C6.72451 6.56342 6.3358 6.95213 6.29674 7.44164L6.16385 9.10688C6.11363 9.73618 5.86617 10.3336 5.4567 10.8141L4.37316 12.0856C4.05465 12.4593 4.05465 13.009 4.37316 13.3828L5.4567 14.6543C5.86617 15.1348 6.11363 15.7322 6.16385 16.3615L6.29674 18.0267C6.3358 18.5162 6.72451 18.9049 7.21402 18.944L8.87926 19.0769C9.50856 19.1271 10.106 19.3746 10.5865 19.784L11.8579 20.8676C12.2317 21.1861 12.7814 21.1861 13.1552 20.8676L14.4266 19.784C14.9071 19.3746 15.5045 19.1271 16.1338 19.0769L17.7991 18.944C18.2886 18.9049 18.6773 18.5162 18.7164 18.0267L18.8493 16.3615C18.8995 15.7322 19.1469 15.1348 19.5564 14.6543L20.6399 13.3828C20.9585 13.009 20.9585 12.4593 20.6399 12.0856L19.5564 10.8141C19.1469 10.3336 18.8995 9.73618 18.8493 9.10688L18.7164 7.44164C18.6773 6.95213 18.2886 6.56342 17.7991 6.52436L16.1338 6.39147C15.5045 6.34125 14.9071 6.09379 14.4266 5.68432L13.1552 4.60079Z" fill="#535763"/>
<path d="M11.5063 10.2342C11.5063 11.0626 10.8348 11.7342 10.0063 11.7342C9.17792 11.7342 8.50635 11.0626 8.50635 10.2342C8.50635 9.40575 9.17792 8.73418 10.0063 8.73418C10.8348 8.73418 11.5063 9.40575 11.5063 10.2342Z" fill="#535763"/>
<path d="M16.5063 15.2342C16.5063 16.0626 15.8348 16.7342 15.0063 16.7342C14.1779 16.7342 13.5063 16.0626 13.5063 15.2342C13.5063 14.4057 14.1779 13.7342 15.0063 13.7342C15.8348 13.7342 16.5063 14.4057 16.5063 15.2342Z" fill="#535763"/>
<path fill-rule="evenodd" clip-rule="evenodd" d="M15.6466 8.96596C16.0708 9.31952 16.1282 9.95009 15.7746 10.3744L10.7746 16.3744C10.421 16.7986 9.79047 16.856 9.36619 16.5024C8.94191 16.1488 8.88459 15.5183 9.23815 15.094L14.2382 9.09399C14.5917 8.66972 15.2223 8.61239 15.6466 8.96596Z" fill="#535763"/>
</svg>
